<svg width="161" height="161" viewBox="0 0 161 161" fill="none" xmlns="http://www.w3.org/2000/svg">
<path d="M71.958 35.5816C71.958 35.5816 65.3642 19.6952 53.9119 18.1872C53.9119 18.1872 55.6275 20.0718 58.3099 23.5089C66.2475 33.6786 82.6771 57.4827 88.3837 86.6032C88.3837 86.6032 96.7127 17.4928 134.191 0.331242C134.191 0.331242 101.108 36.9744 93.7054 113.043H83.0633C83.0633 113.043 80.7501 68.0501 60.3896 42.075C60.3896 42.075 44.6579 43.4666 39.1053 32.7985C33.5526 22.1304 34.9421 10.9993 28 0.331242C79.5159 -4.00034 71.958 35.5816 71.958 35.5816Z" fill="#70E000"/>
<path d="M52.9895 138.981C52.6309 138.919 52.2513 138.887 51.8506 138.887C51.471 138.866 51.0809 138.856 50.6802 138.856C50.3006 138.856 49.921 138.856 49.5413 138.856C49.1617 138.835 48.7927 138.782 48.4342 138.698C48.392 138.698 48.3709 138.719 48.3709 138.761C48.1389 139.643 47.9386 140.587 47.7698 141.594C47.6011 142.601 47.4219 143.703 47.2321 144.899C47.0423 146.095 46.8208 147.407 46.5677 148.834C46.3147 150.24 45.9878 151.793 45.5871 153.493C45.1653 151.793 44.849 150.146 44.6381 148.551C44.4483 146.956 44.3112 145.497 44.2268 144.175C44.1425 142.853 44.0897 141.72 44.0687 140.776C44.0476 139.831 43.9948 139.149 43.9105 138.73C43.7418 138.688 43.436 138.656 42.9931 138.635C42.5502 138.614 42.0863 138.614 41.6012 138.635C41.1162 138.635 40.6627 138.667 40.2409 138.73C39.8192 138.793 39.545 138.898 39.4185 139.044V139.076C39.7137 142.706 40.1671 146.316 40.7787 149.904C41.3903 153.472 42.1706 156.955 43.1196 160.355C43.4571 160.46 43.8578 160.523 44.3217 160.544C44.8068 160.586 45.2813 160.607 45.7453 160.607C46.1881 160.607 46.5888 160.586 46.9474 160.544C47.3059 160.502 47.5695 160.481 47.7382 160.481C48.2443 158.655 48.7294 156.861 49.1934 155.098C49.6573 153.314 50.1108 151.541 50.5536 149.778C50.9965 148.016 51.4183 146.242 51.819 144.459C52.2408 142.675 52.6309 140.849 52.9895 138.981ZM70.6548 156.231C69.2207 156.273 67.8288 156.263 66.4791 156.2C65.1294 156.116 63.7586 156.074 62.3667 156.074L62.3351 156.042C62.2929 155.539 62.2507 154.909 62.2085 154.154C62.1874 153.398 62.2296 152.716 62.3351 152.108C62.4405 152.024 62.6409 151.971 62.9361 151.95C63.2314 151.929 63.5583 151.919 63.9168 151.919C64.2964 151.919 64.6865 151.919 65.0872 151.919C65.4879 151.898 65.8464 151.845 66.1628 151.761C66.1417 150.985 66.1522 150.24 66.1944 149.526C66.2366 148.813 66.205 148.099 66.0995 147.386V147.355C65.4457 147.334 64.792 147.323 64.1382 147.323C63.4844 147.323 62.8412 147.302 62.2085 147.26L62.1769 147.229C62.0293 146.662 61.9871 146.064 62.0504 145.434C62.1347 144.784 62.1664 144.154 62.1453 143.546L62.1769 143.514H62.2718C62.9677 143.451 63.6637 143.42 64.3596 143.42C65.0556 143.42 65.7515 143.43 66.4475 143.451C67.1434 143.451 67.8288 143.441 68.5037 143.42C69.1996 143.378 69.885 143.283 70.5599 143.137V143.105C70.5599 142.371 70.581 141.626 70.6232 140.87C70.6864 140.115 70.6654 139.37 70.5599 138.635C70.5599 138.614 70.349 138.593 69.9272 138.572C69.5054 138.551 68.9466 138.541 68.2506 138.541C67.5547 138.541 66.7533 138.551 65.8464 138.572C64.9396 138.593 64.0011 138.614 63.031 138.635C62.0609 138.656 61.0908 138.688 60.1207 138.73C59.1717 138.751 58.2859 138.782 57.4634 138.824C57.358 140.629 57.2947 142.423 57.2736 144.207C57.2525 145.99 57.2525 147.774 57.2736 149.558C57.2947 151.342 57.3263 153.136 57.3685 154.941C57.4107 156.724 57.4318 158.529 57.4318 160.355C59.4775 160.523 61.6075 160.575 63.8219 160.512C66.0573 160.428 68.2506 160.397 70.4017 160.418C70.5705 159.788 70.6654 159.117 70.6864 158.403C70.7075 157.669 70.697 156.966 70.6548 156.294V156.231ZM82.0888 149.558C82.0466 149.579 82.0255 149.589 82.0255 149.589C82.0044 149.589 81.9939 149.6 81.9939 149.621V149.652C82.0361 150.03 82.0572 150.345 82.0572 150.597C82.0572 150.848 82.0466 151.1 82.0255 151.352C82.0255 151.583 82.0255 151.824 82.0255 152.076C82.0466 152.328 82.0783 152.622 82.1204 152.957C82.2259 152.999 82.3735 153.031 82.5633 153.052C82.7742 153.052 82.9956 153.052 83.2276 153.052C83.4807 153.031 83.7127 153.02 83.9236 153.02C84.1556 152.999 84.3348 152.999 84.4614 153.02C84.5246 153.041 84.5563 153.136 84.5563 153.304C84.5773 153.472 84.5773 153.66 84.5563 153.87C84.5563 154.08 84.5352 154.29 84.493 154.5C84.4719 154.689 84.4508 154.825 84.4297 154.909C84.3454 155.203 84.2188 155.444 84.0501 155.633C83.8814 155.801 83.681 155.937 83.4491 156.042C83.1538 156.147 82.8269 156.231 82.4684 156.294C82.131 156.357 81.8041 156.368 81.4878 156.326C81.1925 156.263 80.95 156.168 80.7602 156.042C80.3595 155.727 80.0959 155.297 79.9693 154.752C79.8428 154.206 79.7584 153.702 79.7162 153.241C79.653 152.464 79.6108 151.646 79.5897 150.786C79.5686 149.925 79.5792 149.096 79.6213 148.299C79.6635 147.48 79.7268 146.714 79.8111 146.001C79.9166 145.287 80.0431 144.679 80.1908 144.175C80.2329 144.007 80.2857 143.84 80.3489 143.672C80.4333 143.483 80.4966 143.367 80.5387 143.325C80.7918 143.074 81.0871 142.948 81.4245 142.948C81.7619 142.948 82.1099 142.958 82.4684 142.979C82.7848 142.979 83.0589 143.084 83.2909 143.294C83.5229 143.483 83.7232 143.714 83.8919 143.986C84.0817 144.238 84.2294 144.522 84.3348 144.836C84.4614 145.13 84.5563 145.382 84.6195 145.592C84.9359 145.634 85.21 145.665 85.442 145.686C85.674 145.707 85.8954 145.718 86.1063 145.718C86.3383 145.718 86.5597 145.718 86.7706 145.718C87.0026 145.697 87.2768 145.686 87.5931 145.686C87.9306 145.665 88.1731 145.655 88.3207 145.655C88.4683 145.655 88.5632 145.623 88.6054 145.56L88.637 145.371C88.7847 144.091 88.6687 142.99 88.2891 142.066C87.9095 141.122 87.34 140.367 86.5808 139.8C85.8216 139.233 84.9148 138.845 83.8603 138.635C82.8058 138.404 81.6986 138.362 80.5387 138.509C79.9693 138.593 79.421 138.719 78.8938 138.887C78.3665 139.055 77.892 139.317 77.4702 139.674C76.8586 140.094 76.4158 140.629 76.1416 141.279C75.8885 141.93 75.7093 142.601 75.6038 143.294C75.4984 143.965 75.4246 144.658 75.3824 145.371C75.3402 146.064 75.3086 146.746 75.2875 147.417C75.2664 148.194 75.2559 148.886 75.2559 149.495C75.2769 150.083 75.298 150.649 75.3191 151.195C75.3613 151.719 75.4035 152.254 75.4457 152.8C75.4878 153.346 75.5406 153.954 75.6038 154.626C75.646 155.045 75.6987 155.465 75.762 155.885C75.8463 156.284 75.9202 156.598 75.9834 156.829C76.2365 157.732 76.5845 158.487 77.0274 159.096C77.4702 159.704 78.1135 160.187 78.957 160.544C79.4632 160.753 79.9904 160.89 80.5387 160.953C81.1081 161.016 81.6881 161.016 82.2786 160.953C82.8691 160.911 83.4491 160.827 84.0185 160.701C84.5879 160.596 85.1362 160.47 85.6634 160.323C86.4648 160.029 87.1397 159.599 87.688 159.033C88.2363 158.466 88.5632 157.648 88.6687 156.577C88.8796 155.444 88.9639 154.259 88.9217 153.02C88.8796 151.761 88.7952 150.576 88.6687 149.463L88.637 149.432H88.5738C88.3629 149.432 87.9516 149.411 87.34 149.369C86.7495 149.306 86.1063 149.264 85.4104 149.243C84.7144 149.222 84.0501 149.233 83.4174 149.275C82.8058 149.296 82.363 149.39 82.0888 149.558ZM104.03 149.463C103.946 149.107 103.83 148.624 103.682 148.016C103.535 147.407 103.377 146.735 103.208 146.001C103.039 145.266 102.86 144.501 102.67 143.703C102.501 142.906 102.333 142.161 102.164 141.468C102.016 140.755 101.869 140.125 101.721 139.58C101.595 139.013 101.5 138.593 101.436 138.32C100.74 138.383 100.171 138.425 99.7282 138.446C99.3064 138.446 98.9584 138.446 98.6843 138.446C98.4101 138.446 98.1887 138.446 98.02 138.446C97.8512 138.446 97.6931 138.457 97.5454 138.478C97.0393 140.157 96.5753 141.846 96.1536 143.546C95.7318 145.246 95.3416 146.882 94.9831 148.456C94.6246 150.03 94.3082 151.52 94.0341 152.926C93.781 154.311 93.5596 155.539 93.3698 156.609C93.18 157.679 93.0323 158.55 92.9269 159.221C92.8214 159.893 92.7476 160.302 92.7054 160.449C92.7265 160.47 92.7476 160.481 92.7687 160.481C94.2028 160.46 95.2573 160.47 95.9321 160.512C96.607 160.554 97.0288 160.554 97.1975 160.512C97.2186 160.512 97.2291 160.512 97.2291 160.512C97.2502 160.491 97.2713 160.481 97.2924 160.481C97.4822 160.124 97.6298 159.715 97.7352 159.253C97.8407 158.791 97.9356 158.319 98.02 157.836C98.1254 157.333 98.2203 156.861 98.3047 156.42C98.4101 155.958 98.5366 155.56 98.6843 155.224C98.9163 155.224 99.0955 155.224 99.222 155.224C99.3697 155.203 99.4962 155.192 99.6017 155.192C99.7282 155.192 99.8653 155.192 100.013 155.192C100.161 155.192 100.371 155.213 100.646 155.255C100.793 155.57 100.93 155.948 101.057 156.389C101.183 156.829 101.299 157.291 101.405 157.774C101.531 158.256 101.647 158.728 101.753 159.19C101.879 159.652 102.006 160.05 102.132 160.386H102.164C102.839 160.533 103.556 160.617 104.315 160.638C105.074 160.68 105.77 160.638 106.403 160.512V160.481L104.03 149.463ZM100.804 151.51C100.403 151.51 100.002 151.52 99.6017 151.541C99.201 151.541 98.8214 151.531 98.4628 151.51C98.6105 150.439 98.737 149.443 98.8424 148.519C98.969 147.596 99.0744 146.83 99.1588 146.221C99.2642 145.613 99.3697 145.214 99.4751 145.025C99.6017 144.815 99.7176 144.889 99.8231 145.246C99.9496 145.602 100.087 146.284 100.234 147.292C100.403 148.299 100.593 149.705 100.804 151.51ZM122.871 160.669C123.23 160.669 123.483 160.648 123.63 160.607C123.778 160.565 123.873 160.533 123.915 160.512V159.883C123.915 159.463 123.904 159.043 123.883 158.623C123.883 158.204 123.883 157.784 123.883 157.364C123.883 156.777 123.883 156.2 123.883 155.633C123.904 155.066 123.915 154.479 123.915 153.87C123.915 152.968 123.915 152.066 123.915 151.163C123.915 150.261 123.904 149.369 123.883 148.488V138.352C123.272 138.226 122.576 138.163 121.795 138.163C120.994 138.163 120.235 138.226 119.518 138.352C119.497 138.877 119.476 139.37 119.455 139.831C119.455 140.272 119.455 140.713 119.455 141.153C119.455 141.909 119.465 142.654 119.486 143.388C119.528 144.102 119.549 144.878 119.549 145.718C119.549 146.074 119.528 146.442 119.486 146.819C119.444 147.197 119.391 147.407 119.328 147.449C119.307 147.449 119.233 147.334 119.107 147.103C118.98 146.851 118.822 146.557 118.632 146.221C118.463 145.865 118.274 145.476 118.063 145.057C117.852 144.616 117.651 144.207 117.462 143.829C117.272 143.43 117.103 143.084 116.955 142.79C116.808 142.496 116.713 142.297 116.671 142.192C116.481 141.752 116.312 141.395 116.165 141.122C116.038 140.828 115.911 140.566 115.785 140.335C115.68 140.104 115.564 139.863 115.437 139.611C115.31 139.359 115.173 139.044 115.026 138.667C115.026 138.625 114.91 138.583 114.678 138.541C114.467 138.499 114.214 138.467 113.919 138.446C113.623 138.404 113.328 138.383 113.033 138.383C112.738 138.362 112.527 138.352 112.4 138.352C112.147 138.352 111.894 138.362 111.641 138.383C111.409 138.404 111.187 138.436 110.977 138.478C110.871 139.821 110.797 141.206 110.755 142.633C110.713 144.039 110.692 145.466 110.692 146.914C110.692 148.886 110.702 150.775 110.724 152.58C110.766 154.384 110.787 156.284 110.787 158.277V160.481C111.272 160.481 111.767 160.512 112.274 160.575C112.801 160.638 113.318 160.669 113.824 160.669C114.056 160.669 114.288 160.659 114.52 160.638C114.752 160.617 114.984 160.575 115.216 160.512C115.194 160.155 115.184 159.757 115.184 159.316C115.184 158.854 115.184 158.382 115.184 157.899C115.184 157.018 115.184 156.105 115.184 155.161C115.205 154.217 115.226 153.356 115.247 152.58C115.268 151.803 115.289 151.163 115.31 150.66C115.353 150.156 115.384 149.904 115.405 149.904C115.448 149.904 115.5 150.009 115.564 150.219C115.648 150.408 115.732 150.618 115.817 150.848L116.133 151.793C116.618 153.136 117.198 154.542 117.873 156.011C118.569 157.459 119.265 158.959 119.961 160.512C120.382 160.512 120.867 160.533 121.416 160.575C121.964 160.638 122.449 160.669 122.871 160.669Z" fill="#70E000"/>
</svg>
